<svg fill="none" height="17" viewBox="0 0 174 17" width="174" xmlns="http://www.w3.org/2000/svg" xmlns:xlink="http://www.w3.org/1999/xlink"><clipPath id="a"><path d="m0 0h174v16.2818h-174z"/></clipPath><g clip-path="url(#a)" fill="#252525"><path d="m.00000763.226791h3.06464237l3.84305 11.736009 3.9534-11.780183h2.3914l3.9585 11.782183 3.842-11.736h2.9687l-5.6185 15.9415h-2.4344l-3.9575-11.37561-3.95742 11.37361h-2.43946z"/><path d="m26.9218.227051h11.9419v2.486749h-9.1122v4.11613h8.0763v2.48875h-8.0763v4.25162h9.2276v2.4878h-12.0542z"/><path d="m42.6608.227051h5.3611c5.0617 0 8.5595 3.413379 8.5595 7.868839v.04518c0 4.45543-3.4978 7.91503-8.5595 7.91503h-5.3611zm5.3611 14.743749c4.4866 0 7.3173-3.0118 7.3173-6.78456v-.04517c0-3.75371-2.8307-6.82676-7.3173-6.82676h-4.1649v13.65349z"/><path d="m60.6523.227051h6.7647c1.9787 0 3.5662.61039 4.5326 1.560109.785.7835 1.2233 1.83998 1.2197 2.93953v.04517c0 2.64537-2.0022 4.16131-4.7165 4.51771l5.3121 6.76153h-1.514l-5.1312-6.55774h-5.2692v6.55774h-1.1982zm6.6267 8.208169c2.6918 0 4.6992-1.33423 4.6992-3.61416v-.04518c0-2.12533-1.7029-3.45956-4.6256-3.45956h-5.5021v7.12793z"/><path d="m77.2902.227051h11.4546v1.085249h-10.2584v6.21837h9.2266v1.08526h-9.2266v6.35487h10.3779v1.0853h-11.5741z"/><path d="m91.6715 13.7489.7815-.8815c1.7724 1.6063 3.4058 2.3512 5.7758 2.3512 2.4162 0 4.0732-1.3342 4.0732-3.1433v-.0462c0-1.6725-.898-2.64532-4.5564-3.36916-3.8655-.76801-5.4254-2.05204-5.4254-4.45345v-.04518c0-2.35222 2.1861-4.16131 5.1772-4.16131 2.3496 0 3.8886.633485 5.5226 1.92254l-.759.92663c-1.519-1.28906-3.0372-1.786-4.8096-1.786-2.37 0-3.934 1.33423-3.934 2.98469v.0502c0 1.67356.8735 2.69155 4.6941 3.46056 3.7275.74592 5.2915 2.05706 5.2915 4.36408v.0452c0 2.555-2.232 4.3169-5.3375 4.3169-2.5825-.003-4.5612-.8423-6.494-2.5359z"/><path d="m106.167 13.7489.783-.8814c1.771 1.6063 3.406 2.3512 5.776 2.3512 2.416 0 4.071-1.3343 4.071-3.1433v-.0462c0-1.6726-.896-2.64539-4.555-3.36923-3.865-.76901-5.43-2.05706-5.43-4.45446v-.04518c0-2.35222 2.186-4.16130656 5.177-4.16130656 2.35 0 3.889.63348556 5.523 1.92253656l-.76.92663c-1.519-1.28905-3.038-1.786-4.809-1.786-2.37 0-3.935 1.33423-3.935 2.9847v.0512c0 1.67356.875 2.69155 4.699 3.46056 3.728.74592 5.293 2.05706 5.293 4.36415v.0451c0 2.555-2.232 4.317-5.339 4.317-2.582-.0031-4.561-.8423-6.494-2.536z"/><path d="m121.607.227051h11.984v2.531919h-9.153v4.31692h8.122v2.53193h-8.122v6.44528h-2.831z"/><path d="m140.567.113281h2.626l7.088 15.942519h-2.991l-1.635-3.822h-7.615l-1.657 3.822h-2.9zm4.05 9.655839-2.784-6.33181-2.759 6.33181z"/><path d="m153.204.227051h2.831v15.829049h-2.831z"/><path d="m160.333.227051h7.178c2.025 0 3.613.587303 4.648 1.582199.852.85937 1.335 2.03598 1.335 3.41338v.04518c0 2.60019-1.588 4.1603-3.843 4.79379l4.349 5.9925h-3.336l-3.958-5.5217h-3.544v5.5217h-2.829zm6.969 7.846749c2.025 0 3.314-1.04108 3.314-2.64637v-.04518c0-1.69564-1.243-2.62328-3.337-2.62328h-4.119v5.31483z"/></g></svg>